<?xml version="1.0" encoding="UTF-8" standalone="no"?>
<!-- Created with Inkscape (http://www.inkscape.org/) -->

<svg
   width="64.0px"
   height="64.0px"
   viewBox="0 0 64.0 64.0"
   version="1.1"
   id="SVGRoot"
   sodipodi:docname="icon.svg"
   inkscape:version="1.2.2 (b0a8486541, 2022-12-01)"
   xmlns:inkscape="http://www.inkscape.org/namespaces/inkscape"
   xmlns:sodipodi="http://sodipodi.sourceforge.net/DTD/sodipodi-0.dtd"
   xmlns:xlink="http://www.w3.org/1999/xlink"
   xmlns="http://www.w3.org/2000/svg"
   xmlns:svg="http://www.w3.org/2000/svg">
  <sodipodi:namedview
     id="namedview137"
     pagecolor="#505050"
     bordercolor="#eeeeee"
     borderopacity="1"
     inkscape:showpageshadow="0"
     inkscape:pageopacity="0"
     inkscape:pagecheckerboard="0"
     inkscape:deskcolor="#505050"
     inkscape:document-units="px"
     showgrid="true"
     inkscape:zoom="10.101249"
     inkscape:cx="30.491278"
     inkscape:cy="27.966838"
     inkscape:window-width="1920"
     inkscape:window-height="1009"
     inkscape:window-x="1920"
     inkscape:window-y="152"
     inkscape:window-maximized="1"
     inkscape:current-layer="layer1">
    <inkscape:grid
       type="xygrid"
       id="grid260" />
  </sodipodi:namedview>
  <defs
     id="defs132">
    <linearGradient
       inkscape:collect="always"
       id="linearGradient10243">
      <stop
         style="stop-color:#6300ff;stop-opacity:1;"
         offset="0"
         id="stop10239" />
      <stop
         style="stop-color:#e700ff;stop-opacity:1;"
         offset="1"
         id="stop10241" />
    </linearGradient>
    <linearGradient
       inkscape:collect="always"
       xlink:href="#linearGradient10243"
       id="linearGradient8777"
       x1="0"
       y1="0"
       x2="64"
       y2="64"
       gradientUnits="userSpaceOnUse" />
    <linearGradient
       inkscape:collect="always"
       xlink:href="#linearGradient10243"
       id="linearGradient8785"
       x1="0"
       y1="0"
       x2="64"
       y2="64"
       gradientUnits="userSpaceOnUse" />
  </defs>
  <g
     inkscape:label="Layer 1"
     inkscape:groupmode="layer"
     id="layer1">
    <path
       id="path537"
       style="fill:url(#linearGradient8785);fill-opacity:1;stroke-width:4.14027;stroke-linecap:round;stroke-linejoin:round;paint-order:markers fill stroke"
       d="M 32 4.1074219 L 15.392578 28.855469 L 15.414062 28.869141 A 20 20 0 0 0 12 40 A 20 20 0 0 0 32 60 A 20 20 0 0 0 52 40 A 20 20 0 0 0 50.056641 31.404297 L 40.654297 45.5625 L 40.542969 45.732422 L 40.533203 45.724609 A 10.288103 10.288103 0 0 1 32 50.289062 A 10.288103 10.288103 0 0 1 21.710938 40 A 10.288103 10.288103 0 0 1 23.466797 34.275391 L 23.457031 34.267578 L 37.773438 12.708984 L 32 4.1074219 z " />
    <path
       id="path8686"
       style="fill:url(#linearGradient8777);fill-opacity:1;stroke:none;stroke-width:2;stroke-linecap:round;stroke-linejoin:round;stroke-dasharray:none;stroke-opacity:1;paint-order:markers fill stroke"
       d="M 40.443359 15.914062 L 26.902344 36.306641 C 25.294251 38.595516 25.318655 41.958887 27.236328 44.064453 C 29.101973 46.337259 32.631021 46.968605 35.138672 45.40625 C 37.129889 44.296543 38.031277 42.093148 39.326172 40.333984 L 48.033203 27.222656 L 40.443359 15.914062 z " />
  </g>
</svg>
